# xmcd
#
# Track frame offsets:
# 150
# 16047
# 32517
# 47477
# 60975
# 75487
# 90090
# 103492
# 114770
# 130440
#
# Disc length: 1925 seconds
#
#
# Revision: 0
# Processed by: cddbd v1.5.1PL2 Copyright (c) Steve Scherf et al.
# Submitted via: FreeRIP 2.945 
#
DISCID=6607830a
DTITLE=George Strait - Always Never the Same
DYEAR=1999
DGENRE=Country
TTITLE0=Meanwhile
TTITLE1=Write This Down
TTITLE2=That's the Truth
TTITLE3=What Do You Say To That
TTITLE4=Peace of Mind
TTITLE5=That's Where I Wanna Take Our Love
TTITLE6=Always Never the Same
TTITLE7=One of You
TTITLE8=I Look at You
TTITLE9=4 Minus 3 Equals Zero
EXTD=
EXTT0=
EXTT1=
EXTT2=
EXTT3=
EXTT4=
EXTT5=
EXTT6=
EXTT7=
EXTT8=
EXTT9=
PLAYORDER=
